<?xml version="1.0" standalone="no"?><!DOCTYPE svg PUBLIC "-//W3C//DTD SVG 1.1//EN" "http://www.w3.org/Graphics/SVG/1.1/DTD/svg11.dtd"><svg id="jz52" data-name="图层 1" xmlns="http://www.w3.org/2000/svg" viewBox="0 0 307.2 307.2"><defs><style>.cls-1{fill:none;}.cls-2{fill:#fff;}</style></defs><rect class="cls-1" width="307.2" height="307.2"/><path class="cls-2" d="M111,11.87H42.62A30.77,30.77,0,0,0,11.88,42.61V111a30.78,30.78,0,0,0,30.74,30.75H111A30.78,30.78,0,0,0,141.77,111V42.61A30.76,30.76,0,0,0,111,11.87Zm0,153.53H42.62a30.78,30.78,0,0,0-30.74,30.74v68.44a30.77,30.77,0,0,0,30.74,30.74H111a30.78,30.78,0,0,0,30.76-30.74V196.14A30.8,30.8,0,0,0,111,165.39ZM264.58,11.87H196.17a30.8,30.8,0,0,0-30.76,30.74V111a30.81,30.81,0,0,0,30.76,30.75h68.41A30.79,30.79,0,0,0,295.32,111V42.61A30.77,30.77,0,0,0,264.58,11.87Zm0,153.53H196.17a30.8,30.8,0,0,0-30.76,30.74v68.44a30.81,30.81,0,0,0,30.76,30.75h68.41a30.79,30.79,0,0,0,30.74-30.75V196.14a30.79,30.79,0,0,0-30.74-30.75Z"/></svg>