<?xml version="1.0" standalone="no"?><!DOCTYPE svg PUBLIC "-//W3C//DTD SVG 1.1//EN" "http://www.w3.org/Graphics/SVG/1.1/DTD/svg11.dtd"><svg id="jz52" data-name="图层 1" xmlns="http://www.w3.org/2000/svg" viewBox="0 0 307.2 307.2"><defs><style>.cls-1{fill:none;}.cls-2{fill:#fff;}</style></defs><rect class="cls-1" width="307.2" height="307.2"/><path class="cls-2" d="M238.19,295.37H195.05c-8.37,0-15.19-7.66-15.19-17V232.77H127.44v45.57c0,9.37-6.82,17-15.19,17H68.31c-8.37,0-15.2-7.66-15.2-17V171.39h-26c-6.41,0-12-4.37-14.22-11.1a18.26,18.26,0,0,1,4.24-18.76L140.85,17.67l.06-.07a19.46,19.46,0,0,1,27.53-.13c.25.24.49.49.72.74L290.47,141.93l.07.06a18.37,18.37,0,0,1,3.66,18.72c-2.29,6.52-7.84,10.74-14.1,10.74H253.38V278.32C253.38,287.71,246.56,295.37,238.19,295.37Z"/></svg>