<?xml version="1.0" standalone="no"?><!DOCTYPE svg PUBLIC "-//W3C//DTD SVG 1.1//EN" "http://www.w3.org/Graphics/SVG/1.1/DTD/svg11.dtd"><svg id="jz52" data-name="图层 1" xmlns="http://www.w3.org/2000/svg" viewBox="0 0 307.2 307.2"><defs><style>.cls-1{fill:none;}.cls-2{fill:#fff;}</style></defs><rect class="cls-1" width="307.2" height="307.2"/><path class="cls-2" d="M153.6,11.87A141.73,141.73,0,1,0,295.33,153.6,141.72,141.72,0,0,0,153.6,11.87ZM235,216.49h0a72.34,72.34,0,0,1-13.85,15.87c-3.22,3-9.47,4.14-10.77,4.37a32.63,32.63,0,0,1-5.4.39c-12.32,0-44.11-4.76-86.06-46.79l-.58-.57c-.17-.16-.34-.33-.49-.5a5.9,5.9,0,0,0-.5-.5l-.61-.61C66.2,137.51,69.61,101.61,70.34,97c.34-6.42,4.61-13.33,11.73-19,7.45-6,15.64-8.8,21.93-7.61,8.69,1.65,13.57,5.77,19,12.42s17.07,22.61,9.86,31.68l-.07.07c-.23.27-.23.27-10,10.09a6.85,6.85,0,0,0-1.22,2.87c.08,1,1.65,13.18,23.08,34.95,21.67,21.39,33.86,23,34.9,23.08a6.22,6.22,0,0,0,2.84-1.15c3.07-3.32,8.39-8.92,10.5-10.39,7.56-5.19,20.29-1,31.72,10.44a54.56,54.56,0,0,1,9.63,13.1C238.84,206.73,237.21,212.88,235,216.49Z"/></svg>