<?xml version="1.0" standalone="no"?><!DOCTYPE svg PUBLIC "-//W3C//DTD SVG 1.1//EN" "http://www.w3.org/Graphics/SVG/1.1/DTD/svg11.dtd"><svg id="jz52" data-name="图层 1" xmlns="http://www.w3.org/2000/svg" viewBox="0 0 307.2 307.2"><defs><style>.cls-1{fill:none;}.cls-2{fill:#fff;}</style></defs><rect class="cls-1" width="307.2" height="307.2"/><path class="cls-2" d="M124.3,97.44a10.65,10.65,0,0,1,10.63-10.65h83.9a10.66,10.66,0,0,1,0,21.32H134.92a10.66,10.66,0,0,1-10.63-10.67Zm10.63,45.05h83.9a10.67,10.67,0,0,0,10.46-10.85h0a10.65,10.65,0,0,0-10.46-10.46H134.92A10.64,10.64,0,0,0,124.46,132h0a10.66,10.66,0,0,0,10.46,10.48Zm160.4,68.81v61.11a22.88,22.88,0,0,1-22.84,22.88H34.71a22.89,22.89,0,0,1-22.84-22.88V211.3a22.88,22.88,0,0,1,9.91-18.84V70.69a35.1,35.1,0,0,1,35-35.1H70.31a35,35,0,0,1,33-23.68H250.4A35.12,35.12,0,0,1,285.49,47V192.45A23,23,0,0,1,295.33,211.3ZM89.59,47V188.4h24.64A10.66,10.66,0,0,1,124.81,198c.57,5.6,11.81,13.34,28.81,13.34s28.26-7.77,28.82-13.34A10.63,10.63,0,0,1,193,188.4H264.2V47a13.79,13.79,0,0,0-13.8-13.79H103.28A13.79,13.79,0,0,0,89.54,47ZM43.09,70.69v117.7H68.26V56.91H56.76A13.8,13.8,0,0,0,43,70.69Z"/></svg>