<?xml version="1.0" standalone="no"?><!DOCTYPE svg PUBLIC "-//W3C//DTD SVG 1.1//EN" "http://www.w3.org/Graphics/SVG/1.1/DTD/svg11.dtd"><svg id="jz52" data-name="图层 1" xmlns="http://www.w3.org/2000/svg" viewBox="0 0 236.04 236.04" width="45" height="45"><defs><style>.cls-1{fill:#005197;}.cls-2{fill:#fff;}</style></defs><circle class="cls-1" cx="118.02" cy="118.02" r="118.02"/><path class="cls-2" d="M484.35,124.22c-7.11-9-26-19-34.15-16.39a5.61,5.61,0,0,0-2.91,2l-4.93,6.59c-9.65,2.08-21.89-2.35-32-11.63S394.8,83.71,396.08,74l6.17-5.46c3.28-2.93,2.3-9.87-2.64-18.57-5.38-9.51-16.42-21.81-24.11-19.4a6.23,6.23,0,0,0-1.74.85l-7.82,5.54a17.15,17.15,0,0,0-7.16,15.65c2.21,22.5,16,46.91,37.93,67s47.46,31.77,70.13,32.08h.28a17.19,17.19,0,0,0,14.76-8.41l4.87-8.23C488,133,488.52,129.44,484.35,124.22Z" transform="translate(-311.56 35.54)"/><path class="cls-2" d="M480.64,34.32a69.25,69.25,0,0,0-49-21,3.79,3.79,0,0,0-1.2.17A3.83,3.83,0,0,0,431.52,21a62,62,0,0,1,61.27,62.79,3.84,3.84,0,0,0,7.67.09A69.29,69.29,0,0,0,480.64,34.32Z" transform="translate(-311.56 35.54)"/><path class="cls-2" d="M431.33,36.44a4,4,0,0,0-1.19.18,3.83,3.83,0,0,0,1.1,7.48,38.94,38.94,0,0,1,38.42,39.37,3.85,3.85,0,0,0,3.79,3.88,3.94,3.94,0,0,0,1.19-.18,3.82,3.82,0,0,0,2.69-3.6,46.62,46.62,0,0,0-46-47.13Z" transform="translate(-311.56 35.54)"/><path class="cls-2" d="M431,67.23a15.8,15.8,0,0,1,15.58,16,3.84,3.84,0,0,0,3.79,3.87,3.92,3.92,0,0,0,1.18-.17,3.84,3.84,0,0,0,2.69-3.62,23.47,23.47,0,0,0-23.14-23.71,4.1,4.1,0,0,0-1.2.17,3.83,3.83,0,0,0,1.1,7.49Z" transform="translate(-311.56 35.54)"/></svg>