<?xml version="1.0" standalone="no"?><!DOCTYPE svg PUBLIC "-//W3C//DTD SVG 1.1//EN" "http://www.w3.org/Graphics/SVG/1.1/DTD/svg11.dtd"><svg id="jz52" data-name="图层 1" xmlns="http://www.w3.org/2000/svg" viewBox="0 0 167.89 186.19"><defs><style>.cls-1{fill:#3ba86f;}</style></defs><path class="cls-1" d="M142.1,169.15c-5.6-14.6-25-34.18-37.11-34.18a9.39,9.39,0,0,0-5.68,1.74l-7.61,5.5c-11.3-1.46-23.14-10.81-31.17-24.71S50.32,88.66,54.7,78.17l8.6-3.86C69.56,71.47,71.46,62,68.5,48.2c-2.85-13.3-11.9-34.39-24-34.39a10.82,10.82,0,0,0-3.19.49L29.81,18A24.1,24.1,0,0,0,13.69,36c-5.93,28.48,1.58,63.7,20.6,96.64s45.78,57,73.41,66.14a24.07,24.07,0,0,0,23.65-5l8.92-8.06C142.56,183.7,145.84,178.8,142.1,169.15Z" transform="translate(-11.71 -13.81)"/><path class="cls-1" d="M170,60.19a87.8,87.8,0,0,0-51.39-44,4.85,4.85,0,1,0-3,9.23,78.7,78.7,0,0,1,50.37,99.24,4.85,4.85,0,0,0,3.12,6.12,4.72,4.72,0,0,0,1.5.25,4.86,4.86,0,0,0,4.63-3.35A87.82,87.82,0,0,0,170,60.19Z" transform="translate(-11.71 -13.81)"/><path class="cls-1" d="M109.48,44.06a5.19,5.19,0,0,0-1.52-.24,4.85,4.85,0,0,0-1.5,9.47A49.41,49.41,0,0,1,138,115.53a4.89,4.89,0,0,0,3.12,6.13,5.23,5.23,0,0,0,1.52.23,4.84,4.84,0,0,0,4.61-3.34,59.13,59.13,0,0,0-37.81-74.49Z" transform="translate(-11.71 -13.81)"/><path class="cls-1" d="M97.34,81.19a20,20,0,0,1,12.8,25.23,4.89,4.89,0,0,0,3.12,6.13,5.17,5.17,0,0,0,1.5.24,4.86,4.86,0,0,0,4.63-3.36,29.76,29.76,0,0,0-19-37.48,4.77,4.77,0,0,0-1.51-.24,4.86,4.86,0,0,0-1.51,9.48Z" transform="translate(-11.71 -13.81)"/></svg>