<?xml version="1.0" standalone="no"?><!DOCTYPE svg PUBLIC "-//W3C//DTD SVG 1.1//EN" "http://www.w3.org/Graphics/SVG/1.1/DTD/svg11.dtd"><svg id="jz52" data-name="图层 1" xmlns="http://www.w3.org/2000/svg" viewBox="0 0 174.91 175.67"><defs><style>.cls-1{fill:#005197;}</style></defs><path class="cls-1" d="M72,161.73V162c-1.27,0-2.2.1-2.74.1h-.65a25.2,25.2,0,0,1-18.05-42.35,24.54,24.54,0,0,1,17.3-7.86l.79,0a24.26,24.26,0,0,1,14.44,4.76c6,2.13,12.07-.85,18-8.83s7.14-14.2,3.68-18.67a24.37,24.37,0,0,1-3.58-3.2,7,7,0,0,1-.58-.64A24.83,24.83,0,0,1,118.4,43.9l.76,0a24.91,24.91,0,0,1,24.12,19.43c2,6.25,7.16,31-17.61,64.27C102.76,158.4,80.52,161.73,72,161.73Zm-.8-12.56c3.7.08,23.15-.44,44.43-29.1,21.74-29.2,16.79-49.68,15.57-53.49a12.3,12.3,0,0,0-24.41,2.59A12.31,12.31,0,0,0,110,77a1.83,1.83,0,0,1,.13.16,12.58,12.58,0,0,0,2.26,2,5.9,5.9,0,0,1,1.25,1.09c3.83,4.33,11.25,16.44-2.59,35-8.94,12-18.1,14.53-24.2,14.54a23.94,23.94,0,0,1-9.28-1.91,6.51,6.51,0,0,1-1.46-.86,12.06,12.06,0,0,0-7.5-2.7,12.46,12.46,0,0,0-9,3.87,12.39,12.39,0,0,0,9,20.85s0,0,0,0l.64-.08a8.38,8.38,0,0,1,1.95.2Zm28.71,38.65A86.65,86.65,0,0,1,66,181a6.27,6.27,0,0,1,4.85-11.57,74.26,74.26,0,0,0,29,5.86c41.34,0,75-33.78,75-75.29s-33.62-75.29-75-75.29S25,58.46,25,100A75.42,75.42,0,0,0,36.4,140a6.25,6.25,0,1,1-10.58,6.67A87.88,87.88,0,0,1,12.47,100c0-48.43,39.23-87.84,87.45-87.84s87.46,39.4,87.46,87.84-39.23,87.84-87.46,87.84Z" transform="translate(-12.47 -12.14)"/></svg>